<?xml version="1.0" standalone="no"?>
<!DOCTYPE svg PUBLIC "-//W3C//DTD SVG 20010904//EN"
 "http://www.w3.org/TR/2001/REC-SVG-20010904/DTD/svg10.dtd">
<svg version="1.0" xmlns="http://www.w3.org/2000/svg"
 width="512.000000pt" height="512.000000pt" viewBox="0 0 512.000000 512.000000"
 preserveAspectRatio="xMidYMid meet">

<g transform="translate(0.000000,512.000000) scale(0.100000,-0.100000)"
fill="#000000" stroke="none">
<path d="M4138 5110 c-132 -22 -566 -161 -823 -262 -375 -148 -816 -371 -1112
-561 l-73 -47 0 -902 0 -903 688 687 c478 478 698 692 724 703 135 56 286 -33
296 -174 8 -110 14 -102 -391 -508 l-372 -373 768 0 768 0 45 98 c75 159 153
339 201 462 104 268 230 672 252 810 73 449 -242 886 -694 965 -93 16 -199 18
-277 5z"/>
<path d="M1565 3834 c-506 -408 -717 -669 -839 -1035 -65 -195 -80 -289 -80
-519 -1 -175 3 -222 22 -317 42 -209 124 -409 242 -592 l62 -94 366 369 367
369 -5 962 -5 962 -130 -105z"/>
<path d="M1964 1659 l-687 -687 73 -51 c157 -110 390 -209 588 -251 127 -27
372 -37 512 -21 313 37 643 174 890 370 258 204 689 741 971 1207 l68 114
-864 2 -865 3 -686 -686z"/>
<path d="M503 808 c-480 -481 -502 -507 -503 -587 -1 -121 100 -222 221 -221
80 1 106 23 587 503 254 254 461 464 460 468 -2 3 -37 35 -78 71 -41 36 -106
102 -144 147 -38 44 -72 81 -75 81 -4 0 -214 -208 -468 -462z"/>
</g>
</svg>
